<?xml version="1.0" standalone="no"?>
<!DOCTYPE svg PUBLIC "-//W3C//DTD SVG 20010904//EN"
 "http://www.w3.org/TR/2001/REC-SVG-20010904/DTD/svg10.dtd">
<svg version="1.0" xmlns="http://www.w3.org/2000/svg"
 width="1200.000000pt" height="82.000000pt" viewBox="0 0 1200.000000 82.000000"
 preserveAspectRatio="xMidYMid meet">
<metadata>
Created by potrace 1.16, written by Peter Selinger 2001-2019
</metadata>
<g transform="translate(0.000000,82.000000) scale(0.100000,-0.100000)"
fill="#000000" stroke="none">
<path d="M320 765 c-76 -22 -129 -55 -188 -120 -69 -75 -95 -145 -95 -255 0
-122 26 -185 112 -271 88 -88 149 -113 281 -113 86 -1 101 2 160 30 61 29 139
95 161 135 8 15 0 26 -47 63 l-57 44 -51 -52 c-96 -98 -230 -103 -325 -13 -49
47 -71 100 -71 177 0 223 242 322 396 163 l50 -52 58 45 57 45 -20 27 c-37 52
-97 101 -152 127 -73 33 -190 42 -269 20z"/>
<path d="M1135 765 c-27 -8 -53 -14 -56 -15 -4 0 -34 -18 -67 -40 -222 -148
-225 -485 -7 -635 104 -72 229 -92 347 -55 118 36 191 101 246 217 23 50 27
70 27 153 0 85 -3 102 -31 160 -83 174 -278 265 -459 215z m176 -146 c51 -16
105 -62 131 -112 31 -59 31 -175 0 -234 -79 -152 -297 -165 -395 -25 -31 45
-32 51 -32 144 0 92 1 98 31 140 60 82 165 116 265 87z"/>
<path d="M2592 765 c-296 -83 -385 -452 -160 -660 80 -74 146 -99 268 -99 90
-1 99 1 172 37 87 42 142 97 185 186 25 50 28 67 28 161 0 96 -3 110 -29 165
-84 169 -285 260 -464 210z m183 -146 c52 -14 126 -90 143 -145 26 -88 8 -181
-46 -245 -85 -100 -235 -107 -331 -16 -48 46 -71 101 -71 175 0 173 137 277
305 231z"/>
<path d="M1766 739 c-8 -41 -8 -642 0 -692 l7 -37 236 2 236 3 0 70 0 70 -156
3 -156 2 -7 38 c-3 20 -6 157 -6 305 l0 267 -74 0 -73 0 -7 -31z"/>
<path d="M3230 391 l0 -382 78 3 77 3 3 133 3 132 48 0 49 0 98 -132 99 -133
88 -3 c48 -1 87 1 87 6 0 4 -47 73 -105 152 l-105 144 36 29 c106 88 113 259
13 354 -62 59 -95 67 -291 71 l-178 4 0 -381z m351 200 c31 -31 38 -75 18
-113 -16 -30 -70 -48 -144 -48 l-65 0 0 95 0 95 81 0 c76 0 82 -2 110 -29z"/>
<path d="M4386 740 c-183 -72 -277 -268 -220 -460 46 -155 187 -260 349 -260
109 0 226 52 279 124 l21 28 -24 19 -24 19 -44 -41 c-65 -59 -114 -79 -203
-79 -90 0 -155 27 -212 86 -59 62 -82 125 -82 219 1 88 20 141 74 207 75 91
239 122 345 66 28 -14 65 -42 84 -62 33 -34 34 -34 57 -18 13 9 24 22 24 29 0
21 -104 103 -158 123 -71 27 -198 27 -266 0z"/>
<path d="M5203 746 c-181 -59 -292 -268 -238 -451 48 -166 171 -265 337 -273
155 -8 282 67 355 208 25 50 28 65 28 160 0 94 -3 111 -27 161 -36 72 -105
141 -176 176 -48 23 -72 28 -147 30 -55 2 -106 -3 -132 -11z m252 -81 c60 -29
103 -75 137 -145 32 -65 31 -186 -1 -257 -28 -64 -101 -134 -164 -158 -69 -26
-188 -18 -250 18 -105 62 -152 156 -145 291 5 94 26 141 85 197 96 92 221 112
338 54z"/>
<path d="M6088 747 c-183 -69 -282 -244 -243 -430 25 -119 97 -212 205 -265
49 -24 67 -27 155 -27 87 0 107 3 157 27 76 35 142 104 181 186 29 60 32 76
30 152 -2 153 -66 261 -195 330 -57 31 -72 34 -158 37 -63 2 -107 -1 -132 -10z
m219 -68 c77 -29 153 -105 178 -179 26 -79 18 -189 -20 -259 -56 -102 -142
-151 -265 -151 -154 0 -270 109 -287 271 -15 146 65 274 200 320 69 24 124 23
194 -2z"/>
<path d="M6828 752 l-58 -3 0 -360 0 -360 33 3 32 3 3 152 3 153 82 0 83 0
114 -155 c112 -151 116 -154 153 -155 20 0 37 4 37 9 0 5 -48 73 -106 151 -58
79 -107 148 -109 154 -2 6 15 20 38 32 147 72 137 303 -16 358 -42 15 -181 24
-289 18z m275 -85 c41 -27 61 -64 61 -116 0 -101 -64 -141 -224 -141 l-100 0
0 141 0 141 118 -3 c91 -3 124 -8 145 -22z"/>
<path d="M8570 395 l0 -365 35 0 35 0 0 280 c0 154 3 280 8 280 4 0 106 -128
227 -284 121 -157 227 -285 236 -285 20 -1 29 107 29 364 0 100 -3 223 -6 273
-7 92 -7 92 -34 92 l-27 0 -9 -282 -9 -283 -223 288 c-156 200 -229 287 -243
287 -18 0 -19 -11 -19 -365z"/>
<path d="M9468 413 c-80 -191 -148 -355 -150 -363 -2 -11 6 -15 31 -15 33 0
35 2 69 83 l35 82 180 -2 180 -3 35 -82 c34 -81 36 -83 68 -83 21 0 34 5 34
13 -1 6 -67 170 -148 362 -118 280 -152 351 -167 353 -18 2 -40 -43 -167 -345z
m241 38 c39 -96 71 -178 71 -183 0 -10 -287 -11 -293 0 -3 4 24 75 59 157 35
83 68 163 74 179 5 16 12 27 14 25 2 -2 36 -82 75 -178z"/>
<path d="M10818 753 l-98 -4 0 -359 0 -360 235 0 235 0 0 30 0 30 -197 2 -198
3 0 145 0 145 148 3 147 3 0 29 0 30 -150 0 -150 0 0 120 0 120 193 2 192 3 3
28 3 27 -68 0 c-37 0 -97 2 -133 4 -36 1 -109 1 -162 -1z"/>
<path d="M7472 393 l3 -358 160 0 c142 1 166 3 217 23 76 31 150 99 184 170
36 74 45 204 20 280 -37 111 -110 183 -224 221 -51 18 -86 21 -212 21 l-150 0
2 -357z m290 286 c73 -16 118 -40 162 -89 47 -52 65 -93 72 -168 13 -117 -46
-232 -143 -285 -56 -30 -173 -50 -258 -45 l-50 3 -3 298 -2 297 84 0 c47 0
109 -5 138 -11z"/>
<path d="M8266 673 c-4 -43 -4 -205 0 -360 l7 -283 27 0 27 0 6 166 c4 91 4
253 0 360 l-6 194 -27 0 c-27 0 -27 -2 -34 -77z"/>
<path d="M9970 720 l0 -30 130 0 130 0 0 -330 0 -330 35 0 35 0 0 330 0 330
130 0 130 0 0 30 0 30 -295 0 -295 0 0 -30z"/>
<path d="M11370 390 l0 -362 163 4 c157 3 164 4 227 34 90 42 134 84 172 162
30 61 33 74 33 162 0 83 -4 103 -28 155 -36 78 -95 137 -171 171 -58 27 -70
29 -228 32 l-168 4 0 -362z m305 285 c33 -9 77 -27 98 -41 170 -112 158 -400
-20 -497 -54 -29 -149 -46 -255 -47 l-58 0 0 300 0 300 88 0 c48 0 115 -7 147
-15z"/>
</g>
</svg>
