<svg xmlns="http://www.w3.org/2000/svg" viewBox="0 0 51 37" fill="none"><g clip-path="url(#clip0_523_4198__cVbPfZDT)"><path d="M18.8169 8.35442L25.4947 1.68945L32.1748 8.35209L25.497 15.0171L18.8169 8.35442ZM0 22.5436L4.85871 17.6959L9.71741 22.5436L4.85871 27.3913L0 22.5436ZM13.7605 22.5423L18.6192 17.6946L23.4779 22.5423L18.6192 27.39L13.7605 22.5423ZM27.5221 22.5434L32.3808 17.6957L37.2395 22.5434L32.3808 27.3911L27.5221 22.5434ZM41.2826 22.5421L46.1413 17.6944L51 22.5421L46.1413 27.3898L41.2826 22.5421ZM4.85755 32.2848H46.142V35.4017H4.85755V32.2848Z" fill="black"/></g><defs><clipPath id="clip0_523_4198__cVbPfZDT"><rect width="51" height="35.619" fill="white" transform="translate(0 0.619141)"/></clipPath></defs></svg>