<?xml version="1.0" standalone="no"?>
<!DOCTYPE svg PUBLIC "-//W3C//DTD SVG 20010904//EN"
 "http://www.w3.org/TR/2001/REC-SVG-20010904/DTD/svg10.dtd">
<svg version="1.0" xmlns="http://www.w3.org/2000/svg"
 width="1200.000000pt" height="254.000000pt" viewBox="0 0 1200.000000 254.000000"
 preserveAspectRatio="xMidYMid meet">
<metadata>
Created by potrace 1.16, written by Peter Selinger 2001-2019
</metadata>
<g transform="translate(0.000000,254.000000) scale(0.100000,-0.100000)"
fill="#000000" stroke="none">
<path d="M2710 2374 c-54 -23 -107 -82 -127 -138 -16 -46 -18 -94 -18 -456 0
-397 0 -406 22 -461 82 -201 343 -199 427 5 23 56 24 839 1 907 -44 127 -187
194 -305 143z m116 -168 c18 -14 19 -32 22 -409 2 -248 -1 -404 -7 -420 -8
-21 -17 -27 -40 -27 -59 0 -61 15 -61 430 0 379 2 398 39 427 21 16 23 16 47
-1z"/>
<path d="M5453 2369 c-47 -23 -84 -66 -110 -130 -16 -40 -18 -83 -18 -459 0
-378 2 -419 18 -459 29 -70 56 -101 111 -127 127 -59 266 -1 316 133 23 63 29
240 8 261 -16 16 -130 16 -146 0 -8 -8 -12 -46 -12 -103 0 -105 -13 -135 -60
-135 -58 0 -60 16 -60 432 0 354 1 375 20 406 23 37 38 40 74 11 25 -20 26
-24 26 -125 0 -120 -2 -118 105 -112 l60 3 3 113 c3 108 1 116 -28 176 -29 63
-66 99 -123 124 -43 19 -136 14 -184 -9z"/>
<path d="M9785 2376 c-48 -21 -89 -60 -115 -112 -24 -47 -25 -60 -31 -274 -8
-313 -1 -603 17 -661 33 -105 134 -169 245 -156 87 11 137 47 174 130 l26 56
-1 422 c0 401 -1 424 -21 468 -25 56 -42 77 -98 113 -37 23 -56 28 -105 28
-34 -1 -74 -7 -91 -14z m111 -170 c16 -12 20 -32 25 -113 10 -144 9 -631 0
-682 -14 -69 -58 -83 -91 -28 -19 30 -20 50 -20 377 1 363 6 422 36 445 24 18
26 18 50 1z"/>
<path d="M11420 2377 c-84 -39 -123 -93 -145 -198 -13 -63 -13 -78 0 -136 21
-91 60 -168 160 -318 116 -174 128 -201 123 -288 -3 -53 -8 -72 -23 -83 -54
-40 -99 4 -110 108 -7 61 -9 67 -33 73 -34 8 -143 -16 -149 -32 -9 -23 18
-176 37 -213 54 -105 200 -152 317 -100 105 46 135 106 136 265 1 92 -2 118
-20 157 -24 52 -132 230 -199 328 -53 77 -79 156 -69 208 11 57 22 72 56 72
25 0 33 -6 45 -35 7 -19 14 -50 14 -69 0 -51 21 -67 78 -60 26 3 60 10 75 16
28 11 29 12 22 72 -14 120 -54 189 -129 225 -51 23 -144 27 -186 8z"/>
<path d="M288 2374 c-24 -8 -30 -151 -26 -709 l3 -480 49 -3 c27 -2 96 2 155
7 136 14 183 39 224 122 45 90 56 183 57 464 0 506 -45 588 -333 600 -62 2
-119 2 -129 -1z m224 -194 c42 -32 48 -85 48 -401 0 -354 -9 -401 -80 -411
-22 -3 -30 0 -34 16 -8 30 -7 801 1 809 12 13 40 7 65 -13z"/>
<path d="M1093 2373 l-23 -4 0 -584 c0 -391 3 -586 10 -590 6 -4 96 -9 201
-12 l190 -6 -3 94 -3 94 -102 3 -103 3 0 159 0 159 73 3 72 3 3 83 c2 53 -1
89 -9 98 -8 9 -33 14 -75 14 l-64 0 0 150 0 149 103 3 102 3 3 86 3 86 -32 7
c-34 7 -310 6 -346 -1z"/>
<path d="M1799 2374 c-14 -4 -17 -42 -23 -299 -4 -162 -4 -427 0 -589 l7 -293
83 -7 c251 -19 364 57 394 263 16 113 5 188 -41 285 -8 16 -26 40 -41 54 l-27
26 31 34 c51 59 68 112 68 213 0 108 -19 172 -65 227 -53 61 -112 81 -252 87
-65 2 -125 2 -134 -1z m220 -189 c53 -27 76 -124 51 -216 -12 -44 -36 -67 -78
-75 l-32 -6 0 156 c0 171 0 172 59 141z m27 -501 c50 -62 45 -243 -8 -291 -28
-25 -66 -35 -75 -20 -6 10 -7 81 -3 326 0 21 3 23 33 17 17 -3 42 -18 53 -32z"/>
<path d="M3368 2370 c-17 -10 -18 -49 -18 -583 0 -315 4 -577 8 -583 20 -30
269 -21 335 12 86 43 118 102 141 257 27 185 18 593 -17 712 -28 95 -70 142
-157 173 -48 17 -270 26 -292 12z m238 -189 c48 -29 57 -106 52 -446 -3 -261
-4 -283 -24 -320 -15 -29 -29 -41 -52 -46 -25 -5 -31 -3 -36 15 -3 12 -6 200
-6 419 0 371 1 397 18 397 9 0 31 -9 48 -19z"/>
<path d="M4193 2373 l-23 -4 0 -595 0 -594 200 0 201 0 -3 93 -3 92 -108 3
-108 3 3 157 3 157 70 3 c40 2 73 8 77 15 13 20 9 162 -4 175 -7 7 -40 12 -80
12 l-68 0 0 150 0 149 108 3 107 3 3 86 3 86 -32 7 c-34 7 -310 6 -346 -1z"/>
<path d="M6113 2369 c-10 -10 -13 -143 -13 -595 l0 -582 63 -7 c35 -4 74 -5
88 -3 l24 3 3 248 2 248 22 -3 c19 -2 24 -12 30 -53 4 -27 16 -95 27 -150 11
-55 25 -131 31 -170 17 -99 23 -111 60 -119 48 -9 128 -7 135 3 5 9 -23 175
-44 261 -5 19 -14 67 -21 105 -7 39 -16 80 -21 93 -18 47 -10 111 19 155 41
60 57 128 56 237 -1 166 -47 261 -149 309 -57 27 -292 42 -312 20z m222 -181
c43 -20 65 -75 65 -166 0 -66 -4 -85 -23 -113 -24 -36 -70 -64 -87 -54 -6 4
-10 74 -10 176 0 183 0 182 55 157z"/>
<path d="M6924 2373 c-22 -4 -22 -7 -29 -356 -3 -194 -5 -460 -3 -592 l3 -240
80 -3 c44 -2 135 0 203 3 l123 7 -3 87 -3 86 -110 5 -110 5 -3 135 c-4 188 -8
180 82 180 l73 0 7 46 c10 74 7 132 -6 141 -7 4 -44 10 -83 13 l-70 5 -3 148
-3 147 104 0 c67 0 107 4 115 12 7 7 12 41 12 85 0 61 -3 74 -19 83 -19 10
-310 12 -357 3z"/>
<path d="M7734 2368 c-5 -7 -12 -37 -16 -68 -5 -30 -13 -84 -19 -120 -5 -36
-16 -112 -24 -170 -8 -58 -19 -134 -25 -170 -6 -36 -15 -92 -20 -125 -4 -33
-18 -121 -29 -195 -11 -74 -25 -168 -31 -208 -6 -40 -10 -85 -8 -99 3 -26 4
-26 83 -24 44 1 81 3 82 5 1 1 7 44 13 96 17 143 16 141 102 138 83 -3 79 2
99 -143 6 -44 15 -86 21 -93 8 -9 34 -12 87 -10 69 3 76 5 75 23 -1 21 -19
144 -34 235 -17 110 -32 207 -45 305 -13 92 -19 133 -46 300 -6 33 -14 87 -19
120 -5 33 -14 88 -19 123 -5 35 -15 70 -22 78 -15 19 -194 20 -205 2z m136
-558 c5 -58 13 -123 16 -146 6 -39 4 -41 -23 -47 -15 -3 -41 -3 -56 0 -25 5
-28 9 -22 32 4 14 11 55 15 91 32 254 40 289 52 220 4 -25 12 -92 18 -150z"/>
<path d="M8384 2373 c-17 -3 -23 -13 -27 -51 -3 -26 -3 -65 1 -87 l7 -40 75
-5 75 -5 5 -500 5 -500 79 2 c43 1 81 5 85 8 3 4 7 229 9 500 l3 494 77 3 77
3 0 85 c0 81 -1 84 -25 91 -27 7 -410 9 -446 2z"/>
<path d="M9159 2373 c-15 -4 -17 -48 -24 -436 -3 -238 -5 -504 -3 -592 l3
-160 88 -3 87 -3 0 594 0 595 -22 6 c-25 6 -104 6 -129 -1z"/>
<path d="M10448 2369 c-17 -9 -18 -48 -18 -593 0 -320 2 -585 4 -587 2 -2 38
-3 80 -1 l76 4 0 324 c0 179 4 323 8 320 5 -3 17 -36 26 -73 10 -37 22 -77 26
-88 5 -11 12 -36 15 -55 8 -42 12 -58 101 -367 10 -34 25 -65 33 -68 9 -3 43
-3 77 0 l62 7 6 342 c3 187 3 454 -2 591 l-7 250 -75 0 -75 0 -6 -135 c-4 -74
-7 -217 -8 -318 -1 -119 -4 -181 -11 -177 -5 3 -10 16 -10 28 0 12 -14 69 -31
127 -17 58 -37 130 -44 160 -7 30 -22 89 -35 130 -23 79 -25 89 -34 132 -10
44 -32 58 -89 58 -29 0 -60 -5 -69 -11z"/>
<path d="M6450 536 c-15 -19 -18 -352 -3 -367 6 -6 62 -8 134 -7 102 3 124 6
124 18 0 12 -20 16 -107 18 l-108 3 0 64 0 65 84 0 c62 0 87 4 96 15 17 20 4
24 -95 27 l-80 3 -3 62 -3 61 106 7 c74 5 105 11 105 20 0 17 -47 25 -150 25
-64 0 -91 -4 -100 -14z"/>
<path d="M6905 542 l-30 -7 -3 -179 c-2 -137 1 -181 10 -188 17 -10 255 -10
262 0 14 23 -16 31 -114 34 l-105 3 -3 63 -3 62 80 0 c88 0 111 5 111 26 0 10
-23 14 -92 16 l-93 3 -3 63 -3 62 85 0 c94 0 147 13 128 32 -14 14 -180 21
-227 10z"/>
<path d="M7329 543 c-9 -2 -19 -18 -23 -35 -8 -40 -8 -276 0 -317 10 -50 31
-37 40 26 l9 58 62 3 61 3 47 -61 c42 -54 75 -76 75 -50 0 6 -16 34 -35 64
l-36 53 36 36 c32 32 35 40 35 91 0 50 -3 59 -34 89 -29 29 -43 35 -96 40 -67
7 -115 7 -141 0z m206 -68 c18 -17 25 -35 25 -62 -1 -67 -42 -93 -145 -93
l-65 0 0 90 0 90 80 0 c73 0 83 -3 105 -25z"/>
<path d="M8004 544 c-19 -5 -22 -14 -28 -96 -10 -149 -7 -252 7 -273 13 -16
25 -17 119 -13 144 8 198 40 231 140 13 41 14 53 2 93 -32 106 -86 142 -221
149 -49 2 -98 2 -110 0z m230 -72 c78 -54 80 -174 3 -235 -33 -27 -46 -31
-122 -35 l-85 -5 0 150 c0 82 2 152 5 155 3 3 40 3 83 1 63 -4 84 -10 116 -31z"/>
<path d="M9653 543 c-65 -9 -19 -43 58 -43 l39 0 0 -157 c0 -87 5 -165 10
-173 21 -33 30 11 32 165 l3 160 58 6 c62 7 88 21 66 35 -15 9 -216 15 -266 7z"/>
<path d="M10067 543 c-4 -3 -7 -67 -7 -141 0 -117 3 -139 21 -171 27 -49 51
-62 118 -68 67 -5 114 16 149 67 20 30 22 44 22 172 0 127 -2 139 -17 136 -16
-3 -19 -20 -23 -140 -5 -132 -6 -139 -31 -164 -32 -31 -95 -42 -140 -24 -47
20 -59 60 -59 198 0 88 -4 123 -13 131 -8 6 -17 8 -20 4z"/>
<path d="M10572 538 c-16 -16 -17 -364 -2 -373 6 -4 18 -1 26 6 14 11 15 39
12 186 -3 171 -10 207 -36 181z"/>
<path d="M11076 543 c-3 -4 -6 -69 -6 -145 0 -76 -4 -138 -8 -138 -5 0 -58 63
-118 140 -60 77 -116 139 -125 140 -15 0 -18 -19 -24 -142 -8 -177 -5 -222 16
-226 18 -3 29 68 29 194 0 41 4 74 8 74 5 0 55 -61 113 -134 97 -126 131 -158
147 -141 9 9 15 299 7 341 -5 30 -26 50 -39 37z"/>
<path d="M5857 445 c-9 -131 2 -285 20 -285 7 0 14 1 14 3 1 1 4 64 8 140 l6
138 68 -116 c38 -63 72 -115 77 -115 13 0 32 28 91 132 40 71 58 95 63 83 3
-9 6 -70 6 -135 0 -76 4 -121 11 -126 23 -14 29 26 26 196 -3 223 -8 227 -99
73 -35 -59 -67 -116 -73 -127 -22 -42 -27 -36 -136 155 -62 109 -74 107 -82
-16z"/>
<path d="M8569 453 c-23 -48 -50 -108 -61 -133 -11 -25 -29 -64 -40 -87 -21
-43 -19 -77 5 -67 7 2 23 25 35 50 l22 45 102 -3 102 -3 26 -44 c30 -52 50
-63 50 -28 0 21 -61 159 -140 322 -9 17 -25 31 -37 33 -19 3 -28 -10 -64 -85z
m109 -61 c18 -40 32 -77 32 -82 0 -6 -34 -10 -81 -10 -93 0 -91 -8 -33 111 19
39 39 68 43 63 4 -5 22 -42 39 -82z"/>
<path d="M8957 445 c-8 -126 2 -285 18 -285 20 0 25 35 25 168 0 67 4 122 8
122 5 0 24 -21 43 -47 77 -108 190 -243 203 -243 21 0 26 33 26 190 0 154 -5
190 -25 190 -16 0 -25 -67 -25 -186 0 -52 -3 -94 -7 -93 -8 0 -37 36 -168 207
-78 101 -90 98 -98 -23z"/>
<path d="M985 331 c-101 -6 -110 -8 -110 -26 0 -20 7 -20 2155 -20 2148 0
2155 0 2155 20 0 18 -9 20 -110 26 -135 8 -3937 7 -4090 0z"/>
</g>
</svg>
