<?xml version="1.0" standalone="no"?>
<!DOCTYPE svg PUBLIC "-//W3C//DTD SVG 20010904//EN"
 "http://www.w3.org/TR/2001/REC-SVG-20010904/DTD/svg10.dtd">
<svg version="1.0" xmlns="http://www.w3.org/2000/svg"
 width="1200.000000pt" height="296.000000pt" viewBox="0 0 1200.000000 296.000000"
 preserveAspectRatio="xMidYMid meet">
<metadata>
Created by potrace 1.16, written by Peter Selinger 2001-2019
</metadata>
<g transform="translate(0.000000,296.000000) scale(0.100000,-0.100000)"
fill="#000000" stroke="none">
<path d="M2505 2776 c-262 -51 -489 -202 -637 -424 l-56 -84 -12 39 c-55 169
-189 322 -346 394 -121 55 -176 60 -639 56 l-420 -3 -13 -39 c-18 -54 -12 -79
18 -83 79 -9 110 -52 110 -151 0 -152 -149 -977 -201 -1118 -25 -65 -82 -118
-137 -128 -50 -8 -58 -18 -67 -76 l-7 -47 334 -3 c617 -5 624 -5 718 20 219
58 402 189 520 372 22 35 44 62 48 59 3 -3 16 -32 28 -66 63 -182 187 -308
376 -384 105 -41 190 -53 337 -47 193 8 341 55 489 156 173 117 323 314 392
517 75 218 62 509 -32 703 -49 100 -168 216 -278 269 -47 23 -112 49 -145 58
-83 21 -292 27 -380 10z m329 -155 c69 -34 117 -82 154 -156 118 -236 77 -658
-94 -948 -59 -102 -176 -225 -253 -265 -176 -95 -360 -74 -479 52 -58 62 -72
86 -103 186 -21 67 -24 93 -23 240 1 186 17 280 76 437 54 144 112 237 208
333 124 124 211 162 361 157 74 -3 96 -8 153 -36z m-1573 -28 c111 -55 188
-157 230 -306 34 -116 34 -331 0 -462 -73 -285 -236 -487 -457 -567 -77 -28
-272 -31 -319 -6 -85 46 -90 89 -40 408 43 278 138 763 159 814 25 61 68 108
121 133 44 21 61 24 146 21 83 -3 104 -8 160 -35z"/>
<path d="M5145 2783 c-123 -17 -302 -85 -399 -152 -312 -215 -491 -637 -434
-1027 l12 -82 -29 -39 c-48 -62 -149 -156 -207 -190 -107 -65 -276 -81 -367
-35 -58 28 -75 62 -74 140 2 112 104 738 158 968 40 171 84 245 154 260 14 3
36 7 48 10 23 4 43 48 43 93 l0 26 -326 -1 c-362 0 -336 5 -349 -71 -6 -40 -5
-42 22 -48 118 -26 132 -76 93 -342 -65 -443 -145 -858 -182 -946 -27 -63 -75
-104 -133 -113 -51 -7 -61 -21 -67 -91 l-3 -38 593 -1 c526 0 594 1 606 15 8
9 32 61 54 116 22 54 44 101 49 102 5 2 25 -17 44 -43 69 -93 210 -185 340
-220 93 -26 298 -24 400 4 198 53 394 206 459 358 74 171 26 341 -93 332 -59
-4 -74 -32 -85 -151 -8 -82 -15 -110 -47 -173 -47 -95 -121 -171 -212 -215
-65 -33 -72 -34 -188 -34 -111 0 -124 2 -177 28 -95 47 -165 146 -204 288 -25
90 -25 322 0 439 54 256 187 491 345 611 98 73 155 93 276 93 88 1 107 -2 157
-26 31 -14 77 -48 102 -74 45 -46 113 -165 135 -236 25 -77 70 -105 121 -78
43 23 42 38 -10 272 -27 122 -52 233 -55 246 -9 37 -30 36 -90 -3 l-56 -37
-60 26 c-92 40 -242 56 -364 39z"/>
<path d="M5810 2726 c-5 -16 -10 -44 -10 -62 0 -28 4 -34 21 -34 45 0 88 -30
105 -75 14 -38 15 -57 5 -147 -29 -266 -140 -883 -180 -999 -40 -116 -80 -162
-152 -174 -34 -6 -43 -13 -55 -41 -17 -41 -18 -80 -1 -86 6 -3 131 -1 276 3
146 4 418 4 605 -1 310 -7 343 -7 364 8 17 12 54 92 128 272 58 140 103 261
102 270 -2 9 -16 16 -36 18 -38 4 -59 -16 -156 -148 -71 -96 -193 -207 -269
-245 -73 -35 -156 -48 -268 -42 -169 9 -209 44 -209 187 0 157 40 371 77 407
23 24 28 25 144 21 119 -3 121 -3 146 -32 21 -24 24 -37 22 -88 -1 -32 2 -63
9 -70 11 -11 126 -7 138 5 4 4 13 58 20 122 8 63 25 165 40 227 39 166 42 153
-46 153 l-75 0 -15 -46 c-35 -108 -72 -129 -222 -129 -138 0 -143 4 -135 101
11 117 72 372 104 431 39 72 67 90 150 95 193 14 356 -76 476 -264 48 -75 69
-93 110 -93 55 0 54 16 -18 243 -37 116 -71 219 -75 227 -8 13 -80 15 -559 15
l-551 0 -10 -29z"/>
<path d="M7383 2734 c-8 -12 -17 -38 -20 -57 -5 -33 -3 -36 23 -42 120 -27
146 -75 183 -345 30 -219 48 -408 66 -690 20 -328 31 -466 40 -479 7 -13 323
-15 343 -3 7 5 142 289 301 633 340 737 341 738 392 794 57 62 110 85 193 85
61 0 70 -3 96 -28 38 -39 45 -85 31 -206 -32 -262 -155 -925 -188 -1009 -38
-98 -104 -157 -173 -157 -22 0 -44 -59 -38 -100 3 -24 3 -24 113 -19 61 2 203
2 317 0 l208 -3 10 27 c6 15 11 40 13 57 2 28 -1 31 -44 44 -112 33 -115 78
-39 539 49 303 114 625 140 701 34 99 85 154 142 154 13 0 32 6 42 13 17 12
41 91 32 105 -2 4 -273 6 -602 5 -537 -2 -600 -4 -610 -18 -14 -18 -28 -84
-20 -92 3 -3 27 -9 53 -14 65 -12 93 -44 93 -107 0 -53 -41 -149 -330 -770
-190 -408 -199 -421 -212 -302 -13 122 -78 891 -84 993 -8 144 8 172 107 192
28 5 48 39 52 89 l2 28 -309 2 c-306 1 -309 1 -323 -20z"/>
<path d="M9638 2743 c-20 -23 -178 -414 -178 -440 0 -24 18 -33 67 -33 42 0
73 30 122 119 44 78 136 173 200 206 65 33 156 35 194 5 37 -29 51 -80 43
-159 -23 -233 -157 -960 -196 -1065 -30 -79 -84 -132 -144 -141 -42 -7 -46
-10 -56 -44 -5 -20 -10 -46 -10 -57 l0 -21 606 -1 605 0 10 25 c5 14 10 39 12
55 2 30 0 32 -53 44 -73 16 -104 51 -98 109 7 60 86 234 124 273 l32 32 205 0
c113 0 217 -4 232 -10 37 -14 45 -47 52 -209 5 -140 4 -147 -16 -168 -12 -13
-40 -26 -62 -29 -35 -6 -44 -12 -55 -40 -17 -41 -18 -81 -1 -85 6 -2 146 -3
309 -1 l296 3 11 31 c6 17 11 43 11 58 0 24 -5 29 -37 35 -68 12 -117 66 -136
146 -13 54 -78 619 -112 979 -29 309 -39 377 -52 388 -12 9 -77 12 -240 12
l-223 0 -15 -24 c-9 -13 -18 -40 -22 -59 -5 -33 -4 -35 38 -48 79 -25 75 -37
-175 -554 -120 -247 -245 -503 -278 -568 -64 -126 -136 -215 -197 -246 -81
-41 -171 -34 -212 17 -20 25 -21 35 -16 137 9 183 155 986 198 1085 12 27 39
66 60 85 35 31 45 35 95 35 30 0 67 -6 82 -14 53 -28 123 -119 186 -244 38
-76 58 -92 110 -92 76 0 77 4 11 243 -32 120 -65 220 -75 231 -17 17 -31 18
-336 6 -232 -8 -386 -8 -564 -1 -329 14 -334 14 -352 -6z m1706 -418 c37 -407
40 -473 22 -500 l-16 -25 -169 0 c-188 0 -202 4 -183 58 5 16 79 176 163 357
126 270 154 324 160 304 4 -13 15 -100 23 -194z"/>
<path d="M4169 794 c-145 -44 -251 -196 -251 -360 0 -89 23 -144 84 -201 50
-45 97 -63 169 -63 100 0 207 59 243 134 22 46 21 108 -2 129 -40 36 -69 17
-82 -52 -13 -70 -40 -106 -96 -127 -42 -16 -50 -16 -87 -3 -68 24 -82 54 -82
172 0 91 3 109 28 162 84 180 229 207 300 56 16 -33 29 -47 46 -49 41 -6 45
10 26 103 -23 107 -34 124 -67 107 -18 -10 -31 -10 -52 -3 -38 15 -122 13
-177 -5z"/>
<path d="M5302 778 c-19 -19 -14 -49 8 -55 10 -3 22 -13 25 -22 6 -20 -48
-351 -64 -393 -5 -14 -23 -32 -38 -40 -19 -9 -29 -22 -31 -40 l-3 -26 198 -4
c109 -2 207 0 219 3 14 5 30 32 52 89 39 99 40 120 8 120 -17 0 -35 -15 -65
-55 -49 -65 -87 -87 -143 -83 -65 5 -67 14 -35 205 32 189 45 228 81 244 27
12 42 41 31 59 -9 15 -228 13 -243 -2z"/>
<path d="M6547 783 c-14 -14 -6 -53 13 -63 26 -14 26 -32 -7 -230 l-26 -165
21 -47 c29 -67 80 -92 187 -92 63 -1 88 4 120 21 88 47 122 109 155 278 42
218 44 225 101 239 27 6 42 35 29 55 -4 8 -44 11 -126 9 l-119 -3 0 -30 c0
-23 5 -31 22 -33 43 -6 45 -22 22 -164 -36 -227 -75 -291 -179 -292 -97 -2
-110 40 -75 238 34 185 41 206 75 218 30 10 44 40 27 57 -12 12 -229 16 -240
4z"/>
<path d="M7923 779 c-21 -21 -15 -49 12 -59 31 -12 31 -19 0 -199 -38 -216
-43 -230 -81 -253 -24 -14 -34 -27 -34 -44 l0 -24 148 -1 c253 -3 288 5 349
74 53 61 56 129 6 193 l-25 34 24 20 c54 42 74 135 41 190 -9 15 -35 39 -57
52 -38 21 -54 23 -206 26 -124 3 -168 0 -177 -9z m301 -80 c59 -46 18 -150
-66 -166 -23 -5 -46 -15 -51 -24 -15 -25 -1 -49 28 -49 30 0 85 -49 85 -75 0
-33 -32 -83 -63 -100 -21 -10 -48 -15 -77 -13 -41 3 -45 6 -48 30 -7 56 57
377 79 405 17 20 83 16 113 -8z"/>
</g>
</svg>
