<?xml version="1.0" encoding="UTF-8"?>
<svg id="Layer_1" data-name="Layer 1" xmlns="http://www.w3.org/2000/svg" viewBox="0 0 3850.38 486.06">
  <path d="M294.02,5.78l-1.91,1.57.09,177.4c0,97.57.26,178.79.52,180.62.35,1.74,1.48,4.09,2.7,5.22l2.17,2h67.66l2.26-2.26,2.26-2.35-.09-61.83-.17-61.83,2-5.39c2.7-7.65,7.22-14.52,12.87-19.48,7.3-6.52,10.44-8.61,15.39-10.26,2.52-.87,4.78-1.91,5.04-2.35.35-.43,3.91-.78,8.09-.78,6.35,0,8.52.43,13.39,2.52,5.65,2.43,11.65,6.52,14.87,10.09.78.96,3.04,4.35,5.04,7.48,3.04,5.04,3.57,6.7,4.26,13.48.43,4.26.96,34.7,1.22,67.57.35,40.26.87,60.44,1.48,61.66,2,3.83,5.65,4.35,29.39,4.17,12.26,0,26.7-.09,32.09-.09,10.52.09,14-.87,15.83-4.26.61-1.13.87-25.13.78-75.31l-.09-73.57-2.09-7.04c-1.13-3.83-2.09-8.17-2.09-9.65s-.52-3.65-1.22-4.87-2.7-4.96-4.44-8.26c-8.61-16.09-16.17-23.13-35.05-32.61-14.17-7.13-26.78-10.26-47.92-11.91-10.52-.87-31.31,3.13-40.44,7.74-4.09,2.09-15.04,9.3-20.09,13.31-4.52,3.65-6.17,4.17-7.83,2.52-1.22-1.22-1.3-10.17-1.3-81.48l.09-80.18-1.91-1.57c-1.65-1.39-4.78-1.48-36.44-1.48s-34.78.09-36.44,1.48Z"/>
  <path d="M1088.32,15.34c-4.52.61-12.87,2.96-15.48,4.35-7.22,3.74-16.35,15.13-20.52,25.74-2.35,5.91-2.7,7.83-2.7,15.22s.35,9.22,2.7,15.13c4.61,11.39,16.35,23.74,26.61,27.74,7.65,3.04,21.74,3.39,30,.7,10.78-3.39,22.18-12.52,27.04-21.48,3.13-5.74,5.83-16.17,5.83-22.35,0-9.39-4-21.13-9.48-28.09-2.61-3.3-16-13.57-19.39-14.87-2.26-.87-17.65-2.78-20.44-2.61-.87.09-2.7.35-4.17.52Z"/>
  <path d="M1291.37,143.44c-10,.35-17.13,1.04-20.87,2-20.87,5.48-23.65,6.44-33.91,11.65-5.91,3.04-11.39,6.09-12.17,6.7-.7.7-2.7,1.91-4.35,2.7-7.3,3.74-21.57,17.48-29.57,28.52-1.65,2.26-4.09,5.57-5.39,7.22s-2.78,4.52-3.39,6.17c-.52,1.74-1.74,4.35-2.52,5.83-4,6.87-7.04,18.96-8.09,31.83-1.22,15.57-1.22,16.7.09,31.65.78,9.74,1.39,12.87,3.13,16.09,1.13,2.17,2.35,5.3,2.7,6.87.87,4.17,5.91,14.78,9.57,20.17,7.22,10.78,22,26.35,30.44,32.18,13.83,9.57,35.65,18.44,50.96,20.87,3.04.43,7.57,1.3,9.91,1.83,2.52.52,13.31.96,25.65.96,19.22,0,21.91-.17,27.39-1.83,3.3-.96,7.04-1.83,8.26-1.83,6.52-.09,34.26-11.39,45.65-18.7,9.04-5.74,32.61-30.44,32.61-34.18,0-.43,1.3-2.78,2.96-5.13,3.74-5.48,7.48-12.78,7.48-14.78,0-.87,1.04-3.74,2.26-6.35,1.48-3.22,2.52-7.3,3.04-12.61.43-4.35,1.13-9.39,1.65-11.3,1.04-4.26,1.04-13.13,0-19.57-.43-2.61-1.22-8-1.74-12-1.39-11.04-8.61-28.61-16.7-40.26-6.17-9.13-20.44-23.39-30.35-30.52-9.74-6.96-25.57-14.78-36.35-18-12.87-3.83-30.44-7.04-37.31-6.87-3.22.09-12.7.43-21.04.7ZM1321.2,212.83c1.13,1.13,3.57,2.35,5.3,2.87,3.48.96,16.61,13.22,18.52,17.31,5.91,12.52,5.91,12.7,5.91,26.96,0,13.13-.09,13.65-2.78,20.17-1.65,4-4.61,8.96-7.3,12.17-4.61,5.57-12.26,12-14.26,12-.61,0-2.61,1.04-4.44,2.35-3.3,2.26-3.83,2.35-17.83,2.7l-14.44.35-6.09-2.7c-3.39-1.48-6.61-2.7-7.04-2.7-1.39,0-13.13-11.3-15.91-15.31-1.39-2-3.74-6.7-5.22-10.35-2.61-6.61-2.61-6.87-2.35-19.83.26-12.78.35-13.39,3.04-19.04,1.48-3.13,4.26-7.83,6.17-10.44,4.09-5.48,12.61-13.74,14.26-13.74.7,0,3.48-1.22,6.35-2.61l5.22-2.61,15.39.17c14.61.26,15.48.35,17.48,2.26Z"/>
  <path d="M913.09,146.05c-23.57,4.96-36.61,11.04-48.79,22.78-18.44,17.74-23.91,44.35-14.61,70.53,2.78,7.65,3.22,8.35,10.96,16,12.7,12.52,32.7,24.35,49.83,29.39,3.83,1.04,11.22,4.17,17.31,7.22,4.61,2.26,10.17,8.17,10.78,11.48,1.22,5.83-5.39,13.48-13.57,15.74-8.87,2.43-24.09-1.04-38-8.7-3.57-1.91-7.83-4.09-9.3-4.87-1.57-.7-4.96-2.87-7.39-4.78-4.78-3.65-9.22-4.52-11.13-2.43-1.22,1.3-4.26,6.44-7.48,12.44-1.3,2.35-5.13,8.87-8.52,14.35-9.74,15.57-12,20-11.48,22.09,1.13,4.44,7.3,9.83,15.91,14,13.74,6.61,16.96,7.91,30.26,11.83,12.78,3.74,22.7,4.61,47.83,4,18.96-.52,22.96-.87,31.48-2.78,17.74-4,33.39-11.3,42.52-19.83,6.35-5.83,14.35-17.57,16.26-23.65,4.26-13.48,5.04-18.7,4.78-31.22-.26-11.74-.43-12.61-3.39-19.83-1.74-4.17-4.44-9.83-6.09-12.61-3.04-5.22-12-14.52-17.31-18-10.09-6.61-17.91-10.35-28.26-13.65-2.87-.87-6-2.09-6.96-2.7-.96-.52-4.7-1.91-8.26-2.96-12.17-3.65-15.22-4.78-20.7-7.57-7.3-3.65-8.26-4.87-8.7-11.04-.35-4.96-.26-5.3,2.43-7.83,1.48-1.39,4.17-2.96,5.91-3.48,4.17-1.13,19.83-1.13,27.13,0,6.78,1.13,20.09,5.48,23.91,7.83,3.65,2.26,10.44,3.22,12.17,1.74s22.18-42.61,22.18-44.61c0-2.35-2.61-6.44-4.7-7.48-6.61-3.3-27.13-9.39-35.31-10.52-3.13-.35-7.39-1.3-9.48-2.09-3.04-1.13-7.39-1.39-22.18-1.3-16.7.09-19.39.26-30.09,2.52Z"/>
  <path d="M132.62,147.35c-16.96,1.83-37.31,11.04-47.31,21.31-2.43,2.52-4.09,3.57-5.48,3.3-1.83-.26-2-.78-2.43-7.65-.52-8-2.26-11.91-5.57-12.61-.96-.17-16.61-.26-34.7-.17l-32.96.17-2.09,2.43-2.09,2.43v324.45l2.52,2.52,2.52,2.52h34.78c32.96,0,34.87-.09,36.78-1.65l2.09-1.65.09-60.87c.09-33.48.35-61.48.61-62.26.87-2.35,2.96-1.65,10.09,3.39,21.57,15.13,51.22,20.78,80.09,15.31,15.65-2.96,25.83-6.87,37.74-14.61,10.96-7.04,26.44-22.44,32.52-32.44,7.04-11.57,14.87-30.78,15.91-39.13.43-3.48,1.22-7.74,1.65-9.48,1.74-5.91,2.09-25.91.61-34-.78-4.09-1.65-9.83-1.91-12.87-.61-6.09-5.22-20.26-9.22-28.18-10.35-20.61-23.83-35.31-43.13-47.31-18.96-11.83-42.7-16.09-71.13-12.96ZM140.7,215.27c3.65.78,8.78,2.43,11.39,3.83,7.04,3.48,15.48,12.7,19.22,20.87,2.96,6.44,3.04,6.7,3.3,20.09.43,17.13-.43,21.57-5.3,29.22-7.22,11.13-17.39,18.61-30.61,22.35-13.31,3.83-22.09,2.78-36.96-4.61-9.74-4.87-19.74-17.04-22.7-27.65-3.48-12.44-2.78-28.52,1.57-37.22,4.09-8,9.48-14.61,15.83-19.39,8.96-6.78,8.17-6.44,17.48-8.17,9.13-1.65,16.35-1.48,26.78.7Z"/>
  <path d="M1059.36,150.92c-1.04.7-2.35,2.09-2.78,3.04-1.39,2.61-.96,209.4.43,213.84.26.87,1.83,2.17,3.39,2.96,2.52,1.22,7.39,1.39,34.35,1.39,34.61,0,37.22-.35,39.13-5.04,1.48-3.65.96-210.36-.61-212.97-2.52-4.44-3.65-4.61-39.05-4.61-28.35,0-33.22.17-34.87,1.39Z"/>
  <path d="M585.42,151.26l-38.61.43-1.65,2.09c-2.26,2.78-2.09,3.83,1.57,9.91,3.74,6.44,17.83,31.65,23.74,42.87,2.35,4.44,6,10.7,8.17,14s4.87,8.17,6.09,10.78c1.3,2.61,3.83,7.22,5.74,10.35,1.91,3.13,4.09,6.96,4.87,8.52.7,1.65,4.26,7.83,7.83,13.83s7.39,12.7,8.52,14.96c1.04,2.17,3.65,6.7,5.65,10.09,2.09,3.3,4.44,7.22,5.3,8.7.87,1.39,2.96,4.96,4.61,7.83,1.74,2.87,4.7,8.35,6.7,12.17s4.78,8.78,6.17,11.04c3.13,4.87,3.65,11.48,1.13,15.31-1.74,2.61-4.96,8.78-17.74,33.83-4.7,9.13-9.13,17.57-9.83,18.7-.7,1.04-1.57,2.96-1.91,4.17s-1.57,3.48-2.78,5.04c-1.13,1.48-2.52,4.09-3.04,5.65-.52,1.48-1.65,3.74-2.43,4.96-.87,1.22-2.35,3.74-3.3,5.65-14.17,28.18-22,43.22-23.91,46.09-3.22,4.87-3.91,9.83-1.65,12.61l1.74,2.17,39.74-.17c25.13-.17,40.26-.52,41.31-1.13,3.22-1.74,4.96-4.87,29.31-52.18,19.39-37.57,33.13-64.18,36.7-70.87,1.04-1.91,3.39-6.61,5.22-10.44,4.26-8.87,13.91-27.57,14.87-28.7.78-1.04,17.04-31.91,27.39-52.18,3.91-7.65,8.87-17.04,10.87-20.87,2.09-3.83,7.22-13.83,11.48-22.09,12.17-23.91,28.96-56.26,32.26-62.26.78-1.48,1.48-3.3,1.48-4.09,0-2.61-2-5.91-3.83-6.44-1.04-.17-19.83-.26-41.83-.17l-40,.26-3.22,6.52c-10.35,21.04-14.61,30.09-14.61,30.7,0,.78-3.65,8.96-7.83,17.57-1.39,2.87-4.7,9.91-7.39,15.65s-6.44,13.57-8.26,17.39-4.17,8.78-5.13,10.96c-2.09,4.61-4.7,7.3-6.35,6.61-.61-.17-3.48-4.78-6.35-10.26-8.78-16.44-13.65-25.48-19.39-35.74-3.04-5.39-7.74-13.91-10.35-18.96-2.7-5.04-5.3-9.74-5.91-10.44s-2.61-4.26-4.35-7.83c-5.48-10.87-11.13-20.17-13.04-21.31-.96-.61-2.52-1.3-3.48-1.39-.96-.17-19.13-.17-40.26.09Z"/>
  <path d="M2599.72,142.27c-25.74,5.3-39.13,10.17-50,18.09-1.91,1.39-5.39,3.74-7.83,5.22-2.35,1.48-9.48,7.83-15.74,14.09-10.96,11.04-13.04,13.83-20.61,27.91-4.09,7.48-7.48,17.13-8.44,23.48-.52,3.83-1.74,10.87-2.78,15.57-2,9.65-1.74,19.91.7,27.91.7,2.35,1.65,7.3,2.17,10.87.52,3.57,1.48,7.91,2.09,9.57s2.09,5.57,3.22,8.7c3.48,9.3,16.35,27.91,25.91,37.39,9.65,9.57,29.91,22.18,43.22,27.04,15.74,5.74,20.87,6.35,47.65,6.17,19.22-.17,24.78-.52,30.87-1.83,9.74-2.17,23.04-6.35,27.39-8.52,1.91-.96,4.44-2.09,5.57-2.43,7.57-2.35,30.35-20.7,36.87-29.74,7.48-10.44,8.7-13.57,6.09-16.52-.87-1.04-8.61-5.39-17.22-9.65-24.52-12.17-30.44-14.96-32.44-14.96-3.3,0-6.52,1.74-11.83,6.44-11.3,9.83-16.96,12.61-29.31,14.78-10.44,1.74-13.83,1.74-24.35-.17-6.61-1.22-9.74-2.35-15.04-5.39-12.52-7.13-16.44-12-19.83-24.35-.96-3.57-1.91-7.13-2.17-7.91-1.13-3.83-1.83-3.83,79.22-4.09,65.92-.17,76.87-.43,78.53-1.57,1.91-1.22,2-1.74,2-14.52,0-10.35-.35-14.78-1.65-19.83-.96-3.57-2-8.44-2.35-10.78-.78-5.65-3.48-12.96-9.04-24.09-7.65-15.31-14.09-23.31-25.65-32-4.26-3.3-10.7-7.57-14.09-9.48-9.65-5.48-26.35-11.48-34.96-12.61-2.61-.35-6.96-1.22-9.57-1.91-6.78-1.83-29.31-2.35-36.61-.87ZM2628.59,194.97c12.09,2.61,19.91,8.87,24.7,19.65,2.52,5.74,2.7,9.48.52,10.7-.96.52-16.35.96-37.13,1.04l-35.48.26-1.57-2c-.96-1.13-1.65-3.04-1.65-4.35,0-6.61,9.48-18.7,17.65-22.52,4.26-2,15.22-4.26,21.48-4.35,2.17-.09,7.3.61,11.48,1.57Z"/>
  <path d="M2057.95,144.53c-28.18,1.39-53.39,11.57-78,31.48-7.65,6.26-13.65,12.87-20.17,22.44-7.91,11.48-10.96,18.35-14.52,32.7-3.13,12.7-3.22,13.31-3.3,29.48,0,17.39.26,19.31,4.87,35.13,2.78,9.48,6.44,18.09,10.17,24,6.44,10.26,20.44,26.52,22.7,26.52.43,0,3.04,1.91,5.83,4.35,5.3,4.52,26.87,15.83,32.44,16.96,1.65.35,5.04,1.57,7.39,2.7,2.52,1.13,7.65,2.35,12.17,2.96,4.35.52,12.17,1.74,17.39,2.78,13.48,2.61,29.13,2.61,37.39.09,3.39-1.04,9.65-2.17,13.91-2.52,15.91-1.13,39.13-11.04,55.48-23.57,19.13-14.61,34.35-35.39,39.39-53.66,1.04-3.91,2.52-8.61,3.3-10.52,1.04-2.78,1.3-7.65,1.39-25.04,0-20.96-.09-21.83-2.17-28-1.22-3.57-2.78-8.61-3.57-11.39-2.61-10-15.04-29.13-25.83-39.65-7.57-7.39-24.96-19.39-36.18-24.96-4-1.91-7.65-3.57-8.26-3.57-.52,0-3.13-1.04-5.74-2.26-4.52-2.09-11.22-3.57-24.35-5.48-8.09-1.22-28-1.65-41.74-.96ZM2084.04,211.58c10.09,2.17,14.17,4.17,21.65,10.35,7.57,6.35,12.09,13.31,15.57,23.74,3.65,11.04,3.91,20.52.7,27.65-1.04,2.61-2.26,5.83-2.61,7.3-1.13,4.61-5.65,11.48-10.52,15.91-9.48,8.7-19.83,12.96-33.48,13.74-7.39.43-9.04.26-15.65-1.83-22.52-7.22-31.91-18.7-36.09-44.18-.87-5.57,1.91-20.26,5.22-27.22,5.57-11.74,18-21.48,31.91-25.04,10.17-2.61,13.13-2.7,23.31-.43Z"/>
  <path d="M1654.45,147.4c-10.44,3.13-23.57,10.52-33.74,19.04-5.48,4.61-7.74,2.61-6.7-5.74.43-2.96.26-5.3-.43-6.61-2.17-4-4.26-4.26-39.92-3.91-35.31.35-36.09.43-38.18,4.52-.43.87-.7,8.17-.61,16.35.17,8.09.35,55.57.43,105.4l.09,90.7,2.09,2.35,2,2.43,35.57.26c35.39.26,35.57.26,37.31-1.65,1.57-1.74,1.65-4.17,2.09-71.57.26-38.35.87-70.44,1.22-71.4,1.48-3.13,8.35-11.65,11.3-13.91,5.57-4.26,8.7-4.96,21.31-4.87,10.61.09,12.17.35,16.61,2.35,5.39,2.43,8.35,4.96,12.78,10.96,2.35,3.22,3.39,5.91,4.61,12.17,2.17,10.7,2.52,20.7,2.61,79.92.09,45.22.26,50.44,1.57,53.05,2.61,5.22,2.52,5.22,39.48,4.96l33.65-.26,2-2,2-2,.43-68.87.43-68.87,1.91-3.91c3.74-7.57,8.17-12.44,13.74-15.22,5.04-2.52,5.57-2.61,17.83-2.61s12.61,0,18,2.78c3.22,1.74,6.35,4.17,7.74,6.09,1.3,1.83,3.3,4.26,4.35,5.48,1.22,1.39,2.87,5.91,4.61,12.7l2.61,10.61.17,59.39c.09,36.09.43,60.35.96,61.83.52,1.39,1.57,2.87,2.43,3.3,2.09,1.13,66.96,1.13,69.83.09,4.26-1.65,4.26-.7,3.91-82.79-.26-71.13-.43-77.13-1.83-80.79-.87-2.17-2.17-6.44-2.87-9.57-1.83-7.91-5.13-15.13-10-21.74-6.26-8.7-21.48-20.35-29.91-23.13-2.35-.78-4.78-1.74-5.3-2.17s-4.61-1.74-9.13-2.96c-7.39-2-9.74-2.17-25.22-2.17-18.09,0-24.35.96-34.26,5.22-4.78,2-15.57,8.26-18.26,10.52-5.65,4.78-11.13,9.65-15.83,14.09-4.44,4.09-5.74,4.87-6.96,4.17-.87-.43-5.91-5.04-11.13-10.26-11.48-11.22-16.26-14.17-31.22-19.39l-11.39-3.83-19.13-.26c-17.74-.17-19.57-.09-25.65,1.74Z"/>
  <path d="M2443.8,148.88c-45.83.52-40.35-.78-45.57,10.44-1.65,3.57-3.39,7.13-3.83,7.83-.96,1.57-1.3,2.35-8.78,19.13-3.3,7.39-6.96,15.39-8.09,17.83-1.13,2.35-3.04,6.52-4.17,9.13-5.91,13.31-9.13,20.61-14.26,31.74-6.87,14.96-6.61,14.52-8.26,15.57-2.78,1.74-5.13-1.91-12.44-20.09-1.65-3.83-4.26-9.83-5.91-13.13-1.74-3.39-3.3-7.04-3.65-8.17-.7-2.35-18.52-41.22-20.09-43.74-.52-.96-1.48-3.3-2.09-5.22-.61-1.91-1.83-4.44-2.61-5.65-.87-1.22-2-3.74-2.52-5.65-.52-2-2.26-4.87-4-6.52l-3.13-3.04-38.87-.26c-21.39-.17-40.18,0-41.74.26-5.74,1.04-7.74,5.39-4.61,9.83,2,2.87,8.44,14.61,15.74,28.44,2.96,5.74,9.74,18.35,15.13,28,5.3,9.74,10.87,19.91,12.35,22.61,8.09,14.96,16.78,30.96,18.17,33.31.7,1.22,2.26,4.26,3.48,6.7,1.13,2.52,3.83,7.39,5.91,10.87,2.09,3.48,4.61,7.91,5.57,9.83,2.78,5.57,8.7,16.61,14.7,27.48,3.04,5.57,5.57,10.35,5.57,10.7,0,.26,2.35,4.61,5.22,9.65,2.87,4.96,6.35,11.57,7.74,14.61q3.83,8.44,31.91,8.44c22.7,0,23.39-.09,26.18-2,1.83-1.22,3.3-3.3,4.17-5.74.7-2.09,2.17-5.04,3.3-6.52s5.04-8.61,8.61-15.74c3.65-7.22,9.13-17.48,12.17-22.87,2.96-5.39,6.87-12.44,8.52-15.65,1.74-3.22,5.39-10.17,8.17-15.39,2.87-5.3,7.39-13.91,10.17-19.13,11.65-22.44,13.31-25.48,16-30,1.48-2.61,5.65-10.26,9.13-16.96,3.48-6.7,8.7-16.7,11.65-22.18,2.87-5.48,6.35-12.35,7.74-15.22,1.39-2.87,3.22-6,4.09-6.96s2-3.3,2.61-5.22,2.61-5.83,4.44-8.78c3.3-5.04,4.09-8.35,2.7-10.52-.7-1.04-5.04-3.04-6.09-2.7-.35.17-18.52.43-40.44.7Z"/>
  <path d="M3326.18.87c-1.04.43-2.35,1.83-2.78,3.04-.61,1.48-.87,65.57-.87,180.53,0,196.27-.35,183.14,5.39,185.05,1.91.61,13.48.78,36.35.52l33.48-.35,2.52-2.78,2.43-2.78-.26-61.83c-.43-72.79-.87-68.7,8.35-79.57,7.13-8.44,10.35-10.87,18.78-14.52,13.83-6,20.78-5.83,33.48,1.04,8.61,4.7,12.78,9.74,17.57,21.48l3.22,8,.26,63.74.26,63.74,2.78,1.65c2.61,1.65,4.52,1.74,34.61,1.74,32.78,0,36.52-.35,38.18-3.48,1.04-2,1.13-140.62.09-153.92-.87-10.61-4.17-19.91-10.96-30.78-4.61-7.39-14.87-17.65-21.04-20.96-2.26-1.22-5.74-3.22-7.65-4.35-4.96-3.04-23.22-9.57-30.35-10.87-3.48-.61-13.74-1.13-24.35-1.22l-18.35-.09-8.17,2.87c-4.44,1.57-10.09,4.09-12.61,5.65-2.43,1.65-5.57,3.65-7.04,4.52-1.39.87-4.87,3.48-7.65,5.83-5.13,4.26-7.48,5.04-9.13,3.04-1.22-1.39-1.83-35.31-1.83-106.53l-.09-54.26-2.52-2.52-2.52-2.52-33.83.09c-18.52,0-34.61.35-35.74.78Z"/>
  <path d="M3686.03,143.22c-6.52.7-13.91,2.09-16.52,3.04s-6.52,2.35-8.7,2.96c-15.13,4.87-35.05,20.09-45.57,34.7-13.83,19.22-18.52,31.22-24.09,61.22-1.3,7.13-.52,28.35,1.3,34.87.78,2.7,1.74,7.57,2.17,10.87.96,6.17,5.22,17.83,10.78,28.7,4.44,8.96,12.61,19.22,23.13,29.39,8.61,8.26,10.26,9.39,21.04,14.7,17.74,8.78,32.26,12.17,51.39,12.09,10.78,0,18-1.04,29.39-4.17,11.3-3.04,24.87-10.09,34.26-17.91,5.65-4.78,6.96-4,7.3,4.35.26,5.48.52,6.35,2.87,8.61l2.61,2.52,31.48-.17c17.31-.09,32.61-.17,33.91-.26,1.57,0,3.48-.96,5.04-2.52l2.52-2.61-.17-105.83-.26-105.92-3.04-1.74c-2.87-1.74-4.61-1.83-34.78-2.09-17.48-.17-32.96-.09-34.44.26-4.78.87-5.83,2.26-6.52,8.7-.26,3.13-.96,6.17-1.39,6.61-.87.87-6-1.57-9.39-4.52-.96-.78-3.65-2.52-6.09-3.74-17.22-8.78-22.96-10.52-39.57-11.83-6.44-.52-12.87-1.04-14.35-1.22-1.39-.17-7.91.26-14.35.96ZM3738.64,211.4c7.13,2.17,13.13,5.83,19.57,11.74,4.26,4,6.17,6.7,9.39,13.31l4,8.26.35,12.35c.35,10.09.09,13.13-1.13,16.96-2.52,7.83-6.17,14.17-11.04,19.48-5.83,6.35-11.22,9.83-21.04,13.31-6.44,2.35-8.87,2.78-15.48,2.78-5.22,0-8.61-.43-10.26-1.3-1.39-.7-5.04-1.83-8.09-2.52-8.17-1.65-16.17-7.65-24.18-18.17-5.04-6.44-7.22-16.78-6.61-30.87.52-13.31,1.83-18,7.57-26.52,11.57-17.31,35.83-25.31,56.96-18.78Z"/>
  <path d="M2987.3,144.44c-6.35.96-20.87,6.26-26.96,9.74-10.09,5.91-15.13,10.09-23.74,19.39-.61.7-2.09,1.22-3.3,1.22-2.61,0-3.3-2.61-2.7-10.17.43-6.17-.43-10.78-2.43-12.44-1.65-1.39-68.18-1.3-71.22.09-4.26,2-4.09-2.35-4,110.09,0,66.44.35,106.27.87,107.31.52.78,1.74,1.83,2.78,2.17,1.13.35,17.48.61,36.35.52l34.35-.17,1.91-2.17,2-2.26v-59.05c0-48.52.17-59.57,1.22-62.35.61-1.83,1.65-4.61,2.26-6.17.61-1.65,2.52-5.48,4.26-8.7,3.65-6.61,8.44-10.7,18.35-15.65,6.26-3.13,6.87-3.22,17.13-3.48,9.57-.26,11.48-.09,18.7,2.09,4.44,1.3,10.35,3.48,13.13,4.96,4.96,2.61,5.04,2.61,8.09,1.22,2.09-1.04,3.48-2.52,4.35-4.78,1.22-3.22,6.61-14.7,8.44-18,8.61-15.83,17.13-34.09,17.13-36.52,0-3.83-2.26-6-10.26-9.65-13.65-6.35-32.7-9.3-46.7-7.22Z"/>
  <path d="M3147.83,145.31c-1.13.43-6,1.83-10.78,3.04-4.78,1.22-10.96,3.3-13.57,4.7-2.7,1.39-7.74,3.91-11.22,5.57-7.22,3.65-11.39,6.52-20.87,14.44-18,15.22-30,33.48-37.57,57.05l-2.61,8.17v22.61c0,20.61.17,22.96,1.74,27.13.96,2.52,2.35,7.04,3.04,10.09,1.3,5.39,8.87,19.83,16.17,30.7,5.65,8.44,26.18,26.44,35.57,31.22,2.17,1.13,4.87,2.61,5.91,3.3,1.13.78,5.04,2.61,8.7,4.17,18.7,8.17,40.7,11.3,65.39,9.22,11.48-.96,37.13-6.7,40.96-9.13,1.13-.7,3.48-1.57,5.13-1.91,4-.87,18.87-9.83,26.78-16.26,3.48-2.78,6.87-5.3,7.57-5.57,1.39-.61,12.7-15.22,14.78-19.13,2.09-4.09,1.65-6.96-1.48-9.3-1.57-1.22-3.83-2.43-5.04-2.78s-10.61-4.78-20.87-9.83c-12.96-6.35-19.91-9.3-22.7-9.57-3.83-.35-4.17-.17-10.26,5.13-8,6.96-15.48,11.57-22.7,13.91-4.7,1.48-7.83,1.83-19.13,1.83-12.78,0-13.91-.17-21.22-2.7-4.26-1.48-8.78-3.39-10.09-4.17-5.13-3.3-10.26-8.78-12.7-13.22-1.39-2.61-3.04-5.48-3.57-6.52-1.65-2.7-1.48-11.39.26-13.04,1.22-1.22,8.78-1.39,69.74-1.48,90.35-.09,82.27.17,85.13-2.7l2.35-2.43-.17-14.52c-.17-10.52-.61-15.83-1.65-18.87-.78-2.43-2.09-7.3-2.87-10.87-2-8.52-6.87-21.22-10.09-26.26-5.91-9.3-7.83-11.74-15.04-18.87-10.96-10.96-17.65-16-28.35-21.48-7.83-4.09-12.17-5.65-24.61-8.78l-15.04-3.83-21.48.09c-11.83,0-22.44.43-23.57.87ZM3187.57,197.31c9.04,3.13,15.39,8,20.09,15.31,4.26,6.61,5.3,10.78,3.13,12.87-1.3,1.3-4.96,1.48-38.26,1.48s-36.96-.17-38.26-1.39c-.78-.78-1.22-1.91-.96-2.43s1.39-3.3,2.61-6.17c3.3-7.91,10.87-15.22,18.96-18.35,12.35-4.7,21.74-5.13,32.7-1.3Z"/>
</svg>